<?xml version="1.0" encoding="UTF-8"?>
<svg width="351px" height="80px" viewBox="0 0 351 80" version="1.1" xmlns="http://www.w3.org/2000/svg" xmlns:xlink="http://www.w3.org/1999/xlink">
    <title>Group 2</title>
    <g id="Page-1" stroke="none" stroke-width="1" fill="none" fill-rule="evenodd">
        <g id="A4-Copy" transform="translate(-127.000000, -559.000000)">
            <g id="Group-2" transform="translate(127.813019, 559.005658)">
                <g id="ookComm" transform="translate(99.393981, 34.438342)" fill="#000000" fill-rule="nonzero">
                    <path d="M13.77,39.312 C22.086,39.312 27.54,32.616 27.54,25.218 C27.54,17.712 22.086,11.07 13.77,11.07 C5.508,11.07 2.27373675e-13,17.712 2.27373675e-13,25.218 C2.27373675e-13,32.616 5.346,39.312 13.77,39.312 Z M13.77,34.452 C8.802,34.452 5.292,30.51 5.292,25.218 C5.292,19.872 8.802,15.93 13.77,15.93 C18.684,15.93 22.248,19.872 22.248,25.218 C22.248,30.51 18.684,34.452 13.77,34.452 Z" id="Shape"></path>
                    <path d="M45.846,39.312 C54.162,39.312 59.616,32.616 59.616,25.218 C59.616,17.712 54.162,11.07 45.846,11.07 C37.584,11.07 32.076,17.712 32.076,25.218 C32.076,32.616 37.422,39.312 45.846,39.312 Z M45.846,34.452 C40.878,34.452 37.368,30.51 37.368,25.218 C37.368,19.872 40.878,15.93 45.846,15.93 C50.76,15.93 54.324,19.872 54.324,25.218 C54.324,30.51 50.76,34.452 45.846,34.452 Z" id="Shape"></path>
                    <polygon id="Path" points="82.512 38.556 88.56 38.556 77.22 22.41 87.318 11.826 80.838 11.826 70.686 22.41 70.686 0.756 65.394 0.756 65.394 38.556 70.686 38.556 70.686 29.268 73.71 26.082"></polygon>
                    <path d="M111.402,39.312 C119.718,39.312 125.226,35.1 127.818,28.296 L122.688,26.622 C121.176,30.996 117.558,34.344 111.456,34.344 C103.518,34.344 97.794,28.35 97.794,19.656 C97.794,11.232 103.518,4.968 111.294,4.968 C117.234,4.968 121.122,8.154 122.796,13.446 L127.98,11.718 C125.496,4.266 119.34,0 111.24,0 C100.332,0 92.394,8.262 92.394,19.656 C92.394,31.374 100.224,39.312 111.402,39.312 Z" id="Path"></path>
                    <path d="M146.448,39.312 C154.764,39.312 160.218,32.616 160.218,25.218 C160.218,17.712 154.764,11.07 146.448,11.07 C138.186,11.07 132.678,17.712 132.678,25.218 C132.678,32.616 138.024,39.312 146.448,39.312 Z M146.448,34.452 C141.48,34.452 137.97,30.51 137.97,25.218 C137.97,19.872 141.48,15.93 146.448,15.93 C151.362,15.93 154.926,19.872 154.926,25.218 C154.926,30.51 151.362,34.452 146.448,34.452 Z" id="Shape"></path>
                    <path d="M165.996,38.556 L171.288,38.556 L171.288,23.436 C171.288,18.522 174.204,16.038 177.498,16.038 C180.414,16.038 182.682,17.55 182.682,22.464 L182.682,38.556 L187.974,38.556 L187.974,23.436 C187.974,18.522 190.836,16.038 194.13,16.038 C197.262,16.038 199.368,17.55 199.368,22.464 L199.368,38.556 L204.66,38.556 L204.66,20.79 C204.66,13.986 200.88,11.07 195.966,11.07 C191.862,11.07 188.892,12.96 187.056,15.444 C185.922,13.014 183.492,11.07 179.55,11.07 C175.77,11.07 172.908,12.744 171.126,15.228 L170.37,11.826 L165.996,11.826 L165.996,38.556 Z" id="Path"></path>
                    <path d="M211.68,38.556 L216.972,38.556 L216.972,23.436 C216.972,18.522 219.888,16.038 223.182,16.038 C226.098,16.038 228.366,17.55 228.366,22.464 L228.366,38.556 L233.658,38.556 L233.658,23.436 C233.658,18.522 236.52,16.038 239.814,16.038 C242.946,16.038 245.052,17.55 245.052,22.464 L245.052,38.556 L250.344,38.556 L250.344,20.79 C250.344,13.986 246.564,11.07 241.65,11.07 C237.546,11.07 234.576,12.96 232.74,15.444 C231.606,13.014 229.176,11.07 225.234,11.07 C221.454,11.07 218.592,12.744 216.81,15.228 L216.054,11.826 L211.68,11.826 L211.68,38.556 Z" id="Path"></path>
                </g>
                <path d="M0,0.0138422342 L0,64.9626337 L30.1235046,79.3856989 L75.7687836,79.3856989 C85.7824626,78.0701384 91.4393934,72.4988188 92.739576,62.6717402 C92.739576,54.41701 90.22061,48.9969202 85.1826782,46.411471 C90.22061,42.4199549 92.739576,37.5866368 92.739576,31.9115168 C92.739576,23.3988367 84.6883698,16.1477991 81.7668152,14.719401 C79.8191121,13.7671356 70.3313904,9.50099179 53.3036499,1.92096961 C51.1253713,1.12119345 49.5786844,0.626292433 48.6635895,0.436266551 C45.9912441,-0.118664693 43.9729848,0.0138422342 42.5663757,0.0138422342 C40.437266,0.0138422342 26.2484741,0.0138422342 0,0.0138422342 Z" id="Path-3" fill="#000000"></path>
                <path d="M6.9352417,11.7130839 L30.7235565,20.754748 L74.0804749,20.754748 C81.1948812,21.3192744 84.8956156,24.6763707 85.1826782,30.8260371 C85.1826782,38.7860895 79.6015167,42.5218073 75.9069214,42.5218073 C73.4438578,42.5218073 58.3827362,42.5218073 30.7235565,42.5218073 L6.9352417,31.4649531 L6.9352417,11.7130839 Z" id="Path-2" fill="#FFFFFF"></path>
                <path d="M6.9352417,40.7130839 L30.7235565,49.754748 L74.0804749,49.754748 C81.4819438,51.162239 85.1826782,54.5193354 85.1826782,59.8260371 C85.1826782,67.7860895 79.6015167,71.5218073 75.9069214,71.5218073 C73.4438578,71.5218073 58.3827362,71.5218073 30.7235565,71.5218073 L6.9352417,60.4649531 L6.9352417,40.7130839 Z" id="Path-2-Copy" fill="#FFFFFF"></path>
                <polygon id="Path-2" fill="#AEAEAE" points="6.9352417 11.7130839 30.7235565 20.754748 30.7235565 42.5218073 6.9352417 31.4649531"></polygon>
                <path d="M6.9352417,40.7130839 L30.7235565,49.754748 L74.0804749,49.754748 C81.4819438,50.2976188 85.1826782,53.6547151 85.1826782,59.8260371 C85.1826782,69.08302 79.6015167,71.5218073 75.9069214,71.5218073 C73.4438578,71.5218073 58.3827362,71.5218073 30.7235565,71.5218073 L6.9352417,60.4649531 L6.9352417,40.7130839 Z" id="Path-2-Copy" fill="#FFFFFF"></path>
                <polygon id="Path-2-Copy-2" fill="#AEAEAE" points="6.9352417 40.7130839 30.7235565 49.754748 30.7235565 71.5218073 6.9352417 60.4649531"></polygon>
            </g>
        </g>
    </g>
</svg>